<svg id="Capa_1" enable-background="new 0 0 512.002 512.002" height="512" viewBox="0 0 512.002 512.002" width="512" xmlns="http://www.w3.org/2000/svg"><path d="m429.964 363.062c-37.294 7.077-55.648-41.762-84.718-23.959-8.096 4.958-16.735 4.712-22.795 1.547h-1.665l20.704 61.55c1.464 4.41 4.863 7.904 9.232 9.486 3.769 1.364 9.852 3.559 19.824 7.169 4.145 1.5 7.545 4.552 9.481 8.512l19.006 36.816c3.782.374 7.422 1.232 10.853 2.52 2.025.76 4.276.394 6.043-.853 8.208-5.796 18.225-9.203 29.039-9.203 15.873 0 30.021 7.341 39.258 18.807z" fill="#ab6b51"/><path d="m407.977 412.186c-5.384-11.009-14.696-19.37-26.223-23.543l-.353-.128c-8.024-2.902-14.276-9.32-16.966-17.418l-11.7-35.232c-2.427.616-4.915 1.661-7.49 3.238-8.096 4.958-16.735 4.712-22.795 1.547h-1.665l20.704 61.55c1.464 4.41 4.863 7.904 9.232 9.486 3.769 1.364 9.852 3.559 19.824 7.169 4.145 1.5 7.545 4.552 9.481 8.512l19.006 36.816c3.782.374 7.422 1.232 10.853 2.52 2.025.76 4.276.394 6.043-.853 4.452-3.144 9.44-5.578 14.795-7.153z" fill="#965a44"/><path d="m431.106 364.838-22.249-45.494c-1.937-3.96-5.336-7.012-9.481-8.512l-25.002-9.048c-3.918-1.418-7.178-4.226-9.161-7.89l-11.836-21.87c-2.425-4.481-8.9-4.347-11.138.229l-27.158 51.44 6.044 18.199c6.08 3.862 15.416 4.542 24.12-.789 29.367-17.985 47.794 32.048 85.861 23.735z" fill="#965a44"/><path d="m353.348 337.712-17.635-53.1-20.632 39.08 6.044 18.199c6.08 3.862 15.416 4.542 24.12-.789 2.791-1.709 5.483-2.801 8.103-3.39z" fill="#7c4b37"/><path d="m127.328 132.175c5.739-13.557 17.158-21.072 32.806-21.072 4.961 0 9.695.962 14.034 2.7.431-2.024.648-6.123.607-8.277-.294-15.52-12.967-28.01-28.557-28.01-.072 0-.145 0-.217.001-1.956.016-3.696-1.142-4.459-2.943-6.565-15.507-21.914-26.391-39.814-26.391s-33.248 10.884-39.814 26.391c-.763 1.801-2.503 2.96-4.459 2.943-.072 0-.144-.001-.217-.001-15.59 0-28.263 12.49-28.557 28.01-.303 16.01 13.187 29.114 29.2 29.114h66.479c1.315-.287 2.426-1.185 2.968-2.465z" fill="#8bcaff"/><path d="m73.639 105.526c.294-15.52 12.967-28.01 28.557-28.01.072 0 .145 0 .217.001 1.956.016 3.696-1.142 4.459-2.943 3.544-8.372 9.652-15.392 17.335-20.083-6.549-3.999-14.242-6.308-22.479-6.308-17.9 0-33.248 10.884-39.813 26.391-.762 1.801-2.503 2.96-4.459 2.943-.072 0-.144-.001-.217-.001-15.59 0-28.263 12.49-28.557 28.01-.303 16.01 13.187 29.114 29.2 29.114h44.957c-16.013 0-29.504-13.104-29.2-29.114z" fill="#60b8fe"/><path d="m121.803 184.686h66.581l18.551-46.089c.404-1.005.991-1.892 1.69-2.668-2.396-.765-6.948-1.182-9.598-1.182-.063 0-.126 0-.189.001-1.71.014-3.232-.998-3.898-2.573-5.739-13.557-19.158-23.072-34.806-23.072s-29.067 9.515-34.806 23.072c-.667 1.575-2.188 2.588-3.898 2.573-.063-.001-.126-.001-.189-.001-13.629 0-24.708 10.919-24.965 24.486-.266 13.997 11.528 25.453 25.527 25.453z" fill="#b1dbfc"/><path d="m135.711 159.234c.257-13.567 11.336-24.486 24.965-24.486h.189c1.71.014 3.231-.998 3.898-2.573 3.087-7.291 8.407-13.393 15.088-17.494-5.742-3.525-12.485-5.577-19.718-5.577-15.648 0-29.066 9.515-34.806 23.072-.667 1.575-2.188 2.588-3.898 2.573-.063 0-.126 0-.189 0-13.629 0-24.708 10.919-24.965 24.486-.265 13.996 11.529 25.452 25.528 25.452h39.436c-13.999-.001-25.793-11.457-25.528-25.453z" fill="#8bcaff"/><path d="m381.027 425.365c-1.937-3.96-5.336-7.012-9.481-8.512-9.973-3.609-16.056-5.804-19.824-7.169-4.369-1.582-7.768-5.076-9.232-9.486l-43.177-130.012c-45.167 20.777-64.154-39.774-96.017-20.261-17.157 10.507-28.997-2.335-36.375-16.884l-23.979 59.574c-2.994 7.439-9.138 13.163-16.77 15.625l-9.046 2.918c-6.984 2.253-12.752 7.25-15.976 13.843l-83.03 169.77c-2.245 4.591 1.097 9.946 6.208 9.946l188.607.002c-.626-.883-.915-2.009-.675-3.174 2.419-11.751 12.928-20.418 24.87-20.348 4.036.024 7.841 1.011 11.216 2.737 1.462.748 3.242.608 4.52-.43 5.048-4.1 11.46-6.558 18.444-6.558 3.639 0 7.122.669 10.34 1.889 1.35.512 2.85.332 4.024-.512 5.633-4.049 12.522-6.432 19.963-6.432 5.452 0 10.604 1.283 15.184 3.56h1.837c6.229-4.634 13.911-7.378 22.121-7.331 5.924.035 11.508 1.475 16.456 3.99 2.134 1.085 4.691.851 6.556-.649 7.383-5.938 16.761-9.497 26.974-9.497 1.441 0 2.864.077 4.268.216z" fill="#bc7c63"/><path d="m203.295 249.926c-17.157 10.507-28.997-2.335-36.375-16.884l-23.979 59.574c-2.994 7.439-9.138 13.163-16.77 15.625l-9.046 2.918c-6.984 2.253-12.752 7.25-15.976 13.843l-83.029 169.769c-2.245 4.591 1.097 9.946 6.208 9.946h59.333c-5.11 0-8.453-5.356-6.208-9.946l83.028-169.769c3.224-6.593 8.992-11.59 15.977-13.843l9.046-2.918c7.631-2.461 13.775-8.186 16.77-15.625l18.573-46.142c-5.552-1.113-11.304-.374-17.552 3.452z" fill="#ab6b51"/><circle cx="370.444" cy="78.45" fill="#ffd301" r="30.399"/><path d="m368.634 78.45c0-11.62 6.523-21.714 16.104-26.83-4.261-2.275-9.126-3.569-14.294-3.569-16.789 0-30.399 13.61-30.399 30.399s13.61 30.398 30.399 30.398c5.168 0 10.033-1.294 14.294-3.569-9.581-5.115-16.104-15.209-16.104-26.829z" fill="#ffc20c"/><path d="m270.938 184.749-7.263-21.87c-1.232-3.71-4.704-6.214-8.614-6.211-3.203.003-6.166-1.694-7.797-4.45l-8.791-14.854c-1.632-2.758-4.599-4.45-7.804-4.45h-17.32c-3.701 0-7.031 2.249-8.413 5.683l-38.463 95.557c7.343 14.906 19.316 28.493 36.822 17.772 32-19.597 51.009 41.57 96.595 20.001z" fill="#ab6b51"/><path d="m219.968 248.312 36.819-91.472c-.562-.108-1.138-.171-1.725-.171-3.203.003-6.166-1.694-7.797-4.45l-8.791-14.854c-1.632-2.758-4.599-4.45-7.804-4.45h-17.32c-3.701 0-7.031 2.249-8.413 5.683l-38.463 95.557c7.343 14.906 19.316 28.493 36.822 17.772 5.918-3.626 11.391-4.482 16.672-3.615z" fill="#965a44"/><path d="m347.499 184.879c-.063 0-.126 0-.189.001-1.71.014-3.231-.998-3.898-2.573-5.739-13.557-19.157-23.072-34.806-23.072-15.648 0-29.067 9.515-34.806 23.072-.667 1.575-2.188 2.587-3.898 2.573-.063 0-.126-.001-.189-.001-13.629 0-24.708 10.919-24.965 24.487-.265 13.996 11.529 25.452 25.527 25.452h76.662c13.999 0 25.793-11.456 25.527-25.452-.257-13.568-11.336-24.487-24.965-24.487z" fill="#dfebfa"/><path d="m284.183 209.365c.257-13.567 11.336-24.487 24.965-24.487.063 0 .126 0 .189.001 1.71.014 3.231-.998 3.898-2.573 3.086-7.291 8.407-13.393 15.088-17.495-5.742-3.525-12.485-5.577-19.718-5.577-15.648 0-29.066 9.515-34.806 23.072-.667 1.575-2.188 2.587-3.898 2.573-.063 0-.126-.001-.189-.001-13.629 0-24.708 10.919-24.965 24.487-.265 13.996 11.529 25.452 25.528 25.452h39.436c-13.999.001-25.793-11.456-25.528-25.452z" fill="#b1dbfc"/><path d="m494.771 497.229c-3.73-24.398-24.6-43.08-49.804-43.08-10.814 0-20.83 3.441-29.039 9.295-1.767 1.26-4.018 1.629-6.043.862-4.705-1.784-9.799-2.763-15.122-2.763-10.213 0-19.59 3.594-26.974 9.591-1.865 1.515-4.422 1.751-6.556.656-4.948-2.541-10.533-3.995-16.456-4.03-8.425-.049-16.299 2.865-22.613 7.771 8.121 5.379 13.883 14.093 15.371 24.217.384 2.612-1.571 4.975-4.185 4.975h155.081c3.943-.001 6.942-3.56 6.34-7.494z" fill="#00ba66"/><path d="m375.831 497.229c2.29-14.976 11.043-27.789 23.287-35.459-1.432-.146-2.883-.228-4.354-.228-10.213 0-19.59 3.594-26.974 9.591-1.865 1.515-4.422 1.751-6.556.656-4.948-2.541-10.533-3.995-16.456-4.03-8.426-.049-16.299 2.865-22.613 7.771 8.122 5.379 13.883 14.093 15.371 24.217.384 2.612-1.571 4.975-4.185 4.975h48.82c-3.943 0-6.941-3.559-6.34-7.493z" fill="#01a755"/><path d="m338.856 499.696c-2.517-17.122-17.125-30.26-34.78-30.26-7.593 0-14.623 2.432-20.371 6.564-1.199.862-2.729 1.045-4.107.523-3.283-1.245-6.837-1.928-10.551-1.928-7.126 0-13.669 2.508-18.82 6.692-1.303 1.059-3.12 1.201-4.612.438-3.443-1.761-7.327-2.768-11.445-2.792-12.186-.071-22.91 8.772-25.378 20.763-.535 2.6 1.491 5.027 4.12 5.027h121.715c2.642-.001 4.617-2.388 4.229-5.027z" fill="#43cb8e"/><path d="m257.005 501.061c2.343-11.386 10.114-20.699 20.218-25.324-2.6-.742-5.341-1.143-8.176-1.143-7.126 0-13.669 2.508-18.82 6.692-1.303 1.059-3.12 1.201-4.612.438-3.443-1.761-7.327-2.768-11.445-2.792-12.186-.071-22.91 8.772-25.378 20.763-.535 2.6 1.491 5.027 4.12 5.027h44.568c-.538-1.089-.743-2.358-.475-3.661z" fill="#00ba66"/><path d="m223.384 419.216c-.705-.991-.852-2.26-.424-3.398 1.022-2.721 1.582-5.668 1.582-8.746 0-5.855-2.022-11.235-5.402-15.488-.888-1.117-1.113-2.635-.467-3.906 1.455-2.862 2.288-6.092 2.308-9.518.065-11.3-8.979-20.897-20.265-21.462-7.546-.378-14.275 3.17-18.36 8.771-.477 2.013-1.184 3.937-2.1 5.739-.783 1.541-.51 3.382.566 4.736 4.097 5.156 6.548 11.678 6.548 18.775 0 3.732-.68 7.304-1.918 10.603-.518 1.38-.341 2.919.514 4.12 4.115 5.778 6.537 12.846 6.537 20.48 0 11.004-5.035 20.827-12.92 27.31 4.804 4.558 11.129 7.525 18.09 7.976 16.984 1.101 31.102-12.349 31.102-29.096.001-6.3-1.997-12.13-5.391-16.896z" fill="#00ba66"/><path d="m208.832 407.51c-.871-1.941-1.161-4.078-.88-6.187.29-2.18.436-4.384.436-6.605 0-7.043-1.516-13.999-4.375-20.382-.92-2.055-1.178-4.357-.769-6.571.487-2.631.744-5.304.76-7.979.005-.887-.024-1.77-.07-2.649-1.05-.22-2.12-.384-3.219-.439-7.546-.378-14.275 3.17-18.36 8.771-.477 2.013-1.184 3.937-2.1 5.739-.783 1.541-.51 3.382.566 4.736 4.098 5.156 6.549 11.678 6.549 18.775 0 3.732-.68 7.304-1.918 10.603-.518 1.38-.341 2.919.514 4.12 4.115 5.778 6.537 12.846 6.537 20.48 0 11.004-5.035 20.827-12.92 27.31 4.804 4.558 11.129 7.525 18.09 7.976 1.023.066 2.035.077 3.034.04 8.249-9.872 12.894-22.418 12.894-35.326.001-7.817-1.629-15.409-4.769-22.412z" fill="#01a755"/><path d="m186.963 409.44c-.868-1.201-1.048-2.74-.522-4.12 1.258-3.299 1.948-6.871 1.948-10.603 0-7.097-2.489-13.619-6.65-18.775-1.093-1.354-1.37-3.194-.574-4.736 1.791-3.469 2.816-7.385 2.841-11.539.081-13.699-11.054-25.333-24.948-26.018-15.141-.747-27.654 11.12-27.654 25.866 0 4.183 1.015 8.129 2.807 11.624.792 1.545.623 3.371-.475 4.722-4.2 5.168-6.715 11.721-6.715 18.855 0 3.732.69 7.303 1.948 10.603.526 1.381.345 2.921-.524 4.123-4.692 6.488-7.215 14.602-6.523 23.318 1.377 17.345 15.761 31.306 33.393 32.431 20.909 1.334 38.29-14.97 38.29-35.272-.003-7.633-2.463-14.701-6.642-20.479z" fill="#43cb8e"/><path d="m149.592 432.762c-.692-8.716 1.832-16.83 6.523-23.318.869-1.202 1.051-2.742.524-4.123-1.258-3.299-1.948-6.871-1.948-10.603 0-7.134 2.515-13.687 6.715-18.855 1.099-1.352 1.267-3.177.475-4.722-1.792-3.495-2.807-7.441-2.807-11.624 0-9.283 4.962-17.422 12.414-21.994-3.655-2.25-7.894-3.648-12.432-3.872-15.141-.747-27.654 11.12-27.654 25.866 0 4.183 1.015 8.129 2.807 11.624.792 1.545.623 3.371-.475 4.722-4.2 5.168-6.715 11.721-6.715 18.855 0 3.732.69 7.303 1.948 10.603.526 1.381.344 2.921-.524 4.123-4.692 6.488-7.215 14.602-6.523 23.318 1.377 17.345 15.761 31.306 33.393 32.431 5.786.369 11.299-.617 16.251-2.66-12.084-5.006-20.909-16.376-21.972-29.771z" fill="#00ba66"/><path d="m377.82 21.879v-14.379c0-4.142-3.357-7.5-7.5-7.5s-7.5 3.358-7.5 7.5v14.379c0 4.142 3.357 7.5 7.5 7.5s7.5-3.358 7.5-7.5z"/><path d="m362.82 134.582v14.378c0 4.142 3.357 7.5 7.5 7.5s7.5-3.358 7.5-7.5v-14.378c0-4.142-3.357-7.5-7.5-7.5s-7.5 3.357-7.5 7.5z"/><path d="m325.172 43.687c2.926 2.928 7.675 2.93 10.606 0 2.929-2.929 2.929-7.678-.001-10.606l-10.167-10.168c-2.928-2.93-7.677-2.929-10.606 0s-2.929 7.678.001 10.606z"/><path d="m415.03 133.547c2.93 2.929 7.678 2.929 10.607 0s2.929-7.678 0-10.606l-10.167-10.167c-2.93-2.929-7.678-2.929-10.607 0s-2.929 7.678 0 10.606z"/><path d="m292.091 78.23c0 4.142 3.357 7.5 7.5 7.5h14.379c4.143 0 7.5-3.358 7.5-7.5s-3.357-7.5-7.5-7.5h-14.379c-4.143 0-7.5 3.358-7.5 7.5z"/><path d="m448.551 78.23c0-4.142-3.357-7.5-7.5-7.5h-14.379c-4.143 0-7.5 3.358-7.5 7.5s3.357 7.5 7.5 7.5h14.379c4.143 0 7.5-3.358 7.5-7.5z"/><path d="m325.61 133.547 10.168-10.167c2.93-2.929 2.93-7.678.001-10.607-2.929-2.928-7.678-2.929-10.606 0l-10.168 10.167c-2.93 2.929-2.93 7.678-.001 10.607 2.93 2.93 7.679 2.927 10.606 0z"/><path d="m415.471 43.687 10.167-10.167c2.929-2.929 2.929-7.678-.001-10.606-2.928-2.93-7.677-2.929-10.606 0l-10.167 10.167c-2.929 2.929-2.929 7.678.001 10.606 2.925 2.928 7.675 2.93 10.606 0z"/><path d="m408.219 78.23c0-20.897-17.001-37.898-37.898-37.898s-37.898 17.001-37.898 37.898 17.001 37.898 37.898 37.898 37.898-17.001 37.898-37.898zm-37.899 22.898c-12.626 0-22.898-10.272-22.898-22.898s10.272-22.898 22.898-22.898 22.898 10.272 22.898 22.898-10.272 22.898-22.898 22.898z"/><path d="m502.06 495.938c-1.508-9.77-5.526-18.947-11.553-26.683l-24.629-50.359c-1.818-3.721-6.309-5.262-10.032-3.442-3.721 1.82-5.263 6.312-3.442 10.032l12.168 24.881c-16.929-6.122-36.745-4.231-52.734 6.886-2.614-.945-5.4-1.682-7.933-2.151l-16.262-33.251c-2.806-5.738-7.659-10.095-13.667-12.27l-19.823-7.168c-2.221-.804-3.922-2.552-4.667-4.797l-15.081-45.412c4.376-.24 9.285-1.647 14.637-4.925 10.337-6.329 18.198-1.394 32.346 8.624 10.985 7.779 24.222 17.154 41.089 17.154 1.369 0 2.768-.077 4.187-.206l10.336 21.141c1.819 3.72 6.31 5.263 10.032 3.442 3.721-1.82 5.263-6.312 3.442-10.032l-35.005-71.575c-2.808-5.738-7.66-10.094-13.665-12.268-26.879-9.728-25.192-9.093-25.806-9.381-3.669-1.721-3.27-2.144-16.15-25.945-5.327-9.848-19.556-9.545-24.471.504l-17.09 34.944c-1.232-3.709-15.459-46.55-20.452-61.584h48.977c17.97 0 33.375-14.68 33.026-33.094-.32-16.909-13.835-30.782-30.522-31.786-7.519-15.683-23.32-25.703-40.835-25.703-13.896 0-26.709 6.311-35.167 16.749l-2.646-7.969c-1.955-5.887-7.038-10.169-13.089-11.137-.862-.138-1.743-.209-2.637-.209-.004 0-.009 0-.013 0h-.001c-.543 0-1.054-.295-1.335-.77l-8.79-14.853c-2.968-5.016-8.432-8.131-14.26-8.131h-17.32c-3.087 0-6.013.848-8.529 2.357-1.272-.23-2.556-.389-3.85-.466-4.115-8.584-10.716-15.465-18.717-19.941.76-19.604-14.826-36.479-34.515-37.315-8.307-17.897-26.178-29.366-46.01-29.366s-37.703 11.469-46.01 29.366c-18.821.799-34.172 16.343-34.532 35.335-.386 20.342 16.629 36.756 36.699 36.756h36.122c-3.197 4.912-5.11 10.725-5.228 16.952-.348 18.426 15.069 33.094 33.026 33.094h53.477l-39.297 97.63c-2.169 5.389-6.584 9.503-12.114 11.287-9.378 3.025-22.17 5.7-29.457 20.604l-83.028 169.769c-4.686 9.58 2.298 20.741 12.944 20.741 46.658.001 420.951.005 464.104.005 8.545 0 15.053-7.634 13.752-16.064zm-154.261-218.455c17.432 32.211 10.27 26.201 48.9 40.182 2.328.842 4.209 2.531 5.297 4.754l17.352 35.481c-22.349-2.234-38.52-28.489-61.369-28.489-15.192 0-19.505 10.853-28.8 7.063-2.525-7.601-1.934-5.821-4.138-12.458zm-78.21-85.324.128.001h.007.09c4.837 0 8.983-2.933 10.769-7.149 4.757-11.236 15.708-18.496 27.899-18.496s23.143 7.26 27.899 18.498c1.855 4.382 6.159 7.156 10.865 7.148l.129-.001c9.452 0 17.287 7.684 17.466 17.129.187 9.842-8.277 17.81-18.028 17.81-9.336 0-68.472 0-76.662 0-9.67 0-18.217-7.893-18.028-17.81.179-9.446 8.014-17.13 17.466-17.13zm-211.83-65.239c-11.697 0-21.927-9.551-21.701-21.472.215-11.388 9.662-20.652 21.058-20.652h.155.103c4.949 0 9.387-2.942 11.324-7.52 5.61-13.252 18.527-21.815 32.907-21.815s27.297 8.563 32.907 21.816c1.877 4.435 6.175 7.55 11.582 7.518 10.181 0 18.806 7.394 20.683 17.09-19.632-2.949-38.86 7.154-47.521 25.034h-61.497zm63.921 50.046c-9.708 0-18.217-7.926-18.028-17.81.179-9.445 8.014-17.128 17.466-17.128h.127.099c4.774 0 8.963-2.878 10.768-7.149 10.458-24.702 45.429-24.497 55.799-.002 1.405 3.323 4.196 5.739 7.531 6.698l-14.246 35.392h-59.516zm33.481 280.522c-21.613-1.401-33.434-26.219-20.833-43.916 2.295-3.225 2.828-7.377 1.428-11.106-2.673-7.123-1.713-15.588 3.529-22.138 2.892-3.614 3.404-8.634 1.307-12.787-6.292-12.461 3.177-27.335 17.396-26.62 12.908.646 21.543 14.698 15.458 26.668-2.083 4.1-1.541 9.124 1.381 12.8 5.136 6.462 6.181 14.88 3.481 22.072-1.446 3.847-.749 8.055 1.425 11.109 13.593 19.088-1.2 45.433-24.572 43.918zm36.451 39.511h-27.081v-25.101c5.205-.91 10.161-2.776 14.678-5.524 3.783 2.529 7.995 4.328 12.403 5.309zm-.597-41.2c10.988-14.266 11.939-34.232 1.866-49.571 3.728-11.368 1.804-23.922-5.192-33.689.482-1.107.983-2.474 1.39-3.855 2.79-3.184 6.858-4.927 11.139-4.716 9.683.485 16.252 11.033 11.646 20.09-1.951 3.839-1.449 8.539 1.28 11.972 3.971 4.996 4.721 11.469 2.671 16.929-1.312 3.488-.813 7.371 1.335 10.386l.001.001c12.547 17.616-6.035 41.15-26.136 32.453zm26.404 41.201c4.334-8.865 15.134-12.994 24.309-8.349 4.125 2.09 9.093 1.588 12.654-1.275 6.435-5.176 14.763-6.112 21.735-3.493 3.709 1.395 7.844.863 11.053-1.423 15.476-11.019 36.955-2.99 42.007 14.542zm104.217-30.186c-13.793-6.849-29.646-5.466-41.788 2.485-11.37-3.709-23.699-1.656-33.179 5.109-14.313-6.191-31.038-1.407-40.058 11.445v-13.986c25.013-4.881 37.675-33.749 23.892-55.532 2.91-9.498 1.246-19.725-4.229-27.756 7.523-18.581-6.137-38.632-25.306-39.592-4.051-.2-8.01.454-11.673 1.839-3.681-13.64-15.956-24.154-30.558-24.885-24.928-1.247-42.143 24.113-32.364 46.6-6.949 9.703-8.943 22.244-5.191 33.688-16.902 25.804-1.66 60.326 28.349 65.656v25.115l-124.381-.003 82.613-168.92c4.281-8.753 11.507-9.988 20.588-12.917 9.779-3.154 17.588-10.43 21.425-19.962l18.041-44.821c11.116 13.715 25.208 16.339 39.272 7.726 7.262-4.448 13.48-3.726 23.763 2.763 3.504 2.209 8.134 1.162 10.346-2.34 2.21-3.503 1.163-8.135-2.34-10.345-10.156-6.408-23.835-12.528-39.603-2.87-7.568 4.637-15.552 4.841-24.66-11.771 5.731-14.239 31.632-78.588 37.174-92.356.006-.016.019-.031.026-.046.035-.079.083-.149.129-.22.05-.068.103-.133.148-.184.019-.021.034-.045.052-.066.288-.289.674-.471 1.101-.471h17.32c.552 0 1.069.294 1.351.77l8.791 14.854c2.968 5.016 8.425 8.13 14.241 8.13h.016.001c.678 0 1.276.432 1.489 1.075l4.432 13.342c-13.948 3.937-24.201 17.085-23.73 32.249.556 17.821 15.774 31.483 33.017 31.483h11.879c4.529 13.638 2.916 8.781 8.38 25.232-7.583 2.311-14.78 2.001-22.244-.892-3.86-1.499-8.207.42-9.704 4.282s.42 8.207 4.282 9.704c10.94 4.242 21.551 4.534 32.392 1.136 1.462 4.401 37.976 114.35 40.112 120.783.138.414.286.823.446 1.226 2.391 6.04 7.196 10.72 13.351 12.948l19.824 7.168c2.328.843 4.209 2.531 5.297 4.755l12.901 26.38c-8.656 1.321-16.802 4.921-23.355 9.99-13.457-6.515-29.168-5.784-42.078 2.002zm22.949 30.188c-1.296-7.086-4.627-14.215-9.641-19.995 7.395-2.585 15.628-2.06 22.769 1.57 4.765 2.422 10.517 1.835 14.654-1.491 10.221-8.22 23.505-9.809 34.76-5.583 4.307 1.616 9.165.961 13.005-1.749 25.485-17.997 61.243-3.341 66.896 27.247h-142.443zm142.651 1.225c0-.001-.001-.003-.001-.004 0 .001.001.002.001.004z"/></svg>